<?xml version="1.0" encoding="UTF-8"?>
<svg width="40px" height="40px" viewBox="0 0 40 40" version="1.1" xmlns="http://www.w3.org/2000/svg" xmlns:xlink="http://www.w3.org/1999/xlink">
    <!-- Generator: Sketch 57.1 (83088) - https://sketch.com -->
    <title>Artboard Copy</title>
    <desc>Created with Sketch.</desc>
    <defs>
        <linearGradient x1="77.890625%" y1="17.4934896%" x2="25.4166667%" y2="79.53125%" id="linearGradient-1">
            <stop stop-color="#BAE04B" offset="0%"></stop>
            <stop stop-color="#A2DA55" offset="26.3492506%"></stop>
            <stop stop-color="#78D967" offset="52.8858418%"></stop>
            <stop stop-color="#6AD46B" offset="76.5545281%"></stop>
            <stop stop-color="#4FD478" offset="100%"></stop>
        </linearGradient>
        <filter x="-173.6%" y="-173.6%" width="450.0%" height="450.0%" filterUnits="objectBoundingBox" id="filter-2">
            <feOffset dx="1" dy="7" in="SourceAlpha" result="shadowOffsetOuter1"></feOffset>
            <feGaussianBlur stdDeviation="7" in="shadowOffsetOuter1" result="shadowBlurOuter1"></feGaussianBlur>
            <feColorMatrix values="0 0 0 0 0   0 0 0 0 0   0 0 0 0 0  0 0 0 0.2 0" type="matrix" in="shadowBlurOuter1" result="shadowMatrixOuter1"></feColorMatrix>
            <feMerge>
                <feMergeNode in="shadowMatrixOuter1"></feMergeNode>
                <feMergeNode in="SourceGraphic"></feMergeNode>
            </feMerge>
        </filter>
        <linearGradient x1="66.7382812%" y1="14.3229167%" x2="27.3626309%" y2="97.752889%" id="linearGradient-3">
            <stop stop-color="#FFFFFF" offset="0%"></stop>
            <stop stop-color="#E1F9DB" offset="100%"></stop>
        </linearGradient>
    </defs>
    <g id="Artboard-Copy" stroke="none" stroke-width="1" fill="none" fill-rule="evenodd">
        <g id="Components-/-Z-Symbols-/-Icons-/-Large-/-Success">
            <circle id="BG" fill="url(#linearGradient-1)" cx="20" cy="20" r="20"></circle>
            <g id="checked" filter="url(#filter-2)" stroke-width="1" transform="translate(8.666667, 8.666667)" fill="url(#linearGradient-3)">
                <path d="M11.6666667,0 C5.23391813,0 0,5.23391813 0,11.6666667 C0,18.0994152 5.23391813,23.3333333 11.6666667,23.3333333 C18.0994152,23.3333333 23.3333333,18.0994152 23.3333333,11.6666667 C23.3333333,5.23391813 18.0994152,0 11.6666667,0 Z M18.1871345,8.59649123 L10.7309942,15.994152 C10.2923977,16.4327485 9.59064327,16.4619883 9.12280702,16.0233918 L5.1754386,12.4269006 C4.70760234,11.9883041 4.67836257,11.2573099 5.0877193,10.7894737 C5.52631579,10.3216374 6.25730994,10.2923977 6.7251462,10.7309942 L9.85380117,13.5964912 L16.5204678,6.92982456 C16.9883041,6.4619883 17.7192982,6.4619883 18.1871345,6.92982456 C18.6549708,7.39766082 18.6549708,8.12865497 18.1871345,8.59649123 Z" id="Shape" fill-rule="nonzero"></path>
            </g>
        </g>
    </g>
</svg>