<svg width="500" height="500" viewBox="0 0 500 500" fill="none" xmlns="http://www.w3.org/2000/svg">
<path d="M218.3 1.1582C162.4 8.6582 112.9 32.7582 73.9 71.6582C60 85.5582 52.2 94.7582 42.8 108.758C20.4 141.658 6.7 177.958 1.5 217.958C-0.5 233.558 -0.5 265.758 1.5 281.358C14.9 384.258 89.5 468.158 189.2 492.658C212.3 498.358 220.1 499.158 250 499.158C279.9 499.158 287.7 498.358 310.8 492.658C394.5 472.158 462.5 408.358 488.8 325.658C495.7 303.858 500 277.758 500 257.258C500 245.258 499.9 244.858 497.4 242.258C495.3 240.158 493.8 239.658 490 239.658C481.5 239.658 479 244.158 479 259.758C479 275.858 474.4 301.158 468 320.658C440.2 405.558 365.1 466.958 276 477.658C263.9 479.058 236.2 479.158 224.5 477.658C191.7 473.658 160.5 463.158 133.6 447.058C72.1 410.258 31.9 349.358 22.4 278.658C20.6 265.158 20.6 234.158 22.4 220.658C36.5 115.758 119.1 34.2582 224 21.6582C237.5 20.0582 265.3 20.2582 279.4 22.1582C323 27.8582 364.6 45.9582 397.5 73.3582L404.5 79.1582L384.9 79.4582L365.2 79.6582L362.6 82.3582C358.9 86.0582 358.9 93.2582 362.6 97.0582L365.3 99.6582H400H434.7L437.4 97.0582L440 94.3582V59.6582V24.9582L437.4 22.2582C433.6 18.5582 426.4 18.5582 422.6 22.2582L420 24.9582V44.4582C420 63.2582 419.9 63.8582 418.1 62.5582C417.1 61.7582 412.5 58.0582 407.9 54.3582C381.7 33.2582 347.9 16.2582 315 7.6582C291.9 1.6582 281.8 0.458196 254 0.0581957C236.4 -0.141804 225.4 0.158196 218.3 1.1582Z" fill="black"/>
</svg>
