<svg width="449" height="401" viewBox="0 0 449 401" fill="none" xmlns="http://www.w3.org/2000/svg">
<path d="M91.7078 2.25842C84.6078 5.05842 77.3078 12.3584 74.6078 19.6584C72.9078 24.1584 72.5078 27.5584 72.5078 36.6584V48.0584L50.8078 48.3584C29.0078 48.6584 29.0078 48.6584 23.0078 51.5584C15.3078 55.3584 7.70781 62.9584 3.90781 70.6584L1.00781 76.6584V224.158V371.658L3.90781 377.658C7.70781 385.358 15.3078 392.958 23.0078 396.758L29.0078 399.658L144.708 399.958C259.608 400.158 260.508 400.158 262.508 398.158C264.908 395.758 265.208 389.458 263.108 386.558C261.708 384.658 259.108 384.658 148.808 384.158C42.9078 383.658 35.8078 383.558 32.0078 381.858C26.6078 379.458 21.7078 374.558 19.1078 369.158C17.0078 364.658 17.0078 364.458 16.7078 254.358L16.4078 144.158H224.508H432.508V194.158C432.508 242.858 432.608 244.258 434.508 246.158C437.208 248.858 443.808 248.858 446.508 246.158C448.508 244.158 448.508 243.258 448.308 160.358L448.008 76.6584L445.108 70.6584C441.308 62.9584 433.708 55.3584 426.008 51.5584L420.008 48.6584L398.208 48.3584L376.508 48.0584V36.6584C376.508 22.2584 374.508 16.2584 367.508 9.15842C351.508 -6.74158 322.308 -1.04158 314.608 19.6584C312.908 24.1584 312.508 27.5584 312.508 36.6584V48.1584H284.508H256.508V36.6584C256.508 22.2584 254.608 16.2584 247.508 9.15842C231.508 -6.74158 202.308 -1.04158 194.608 19.6584C192.908 24.1584 192.508 27.5584 192.508 36.6584V48.1584H164.508H136.508V36.6584C136.508 22.2584 134.608 16.2584 127.508 9.15842C118.608 0.358417 104.008 -2.44158 91.7078 2.25842ZM112.508 19.4584C118.108 23.1584 119.808 27.0584 120.308 38.2584L120.808 48.1584H104.508H88.2078L88.7078 38.2584C89.1078 30.8584 89.7078 27.5584 91.1078 25.0584C94.1078 20.0584 98.9078 17.1584 104.508 17.1584C107.708 17.1584 110.308 17.8584 112.508 19.4584ZM232.508 19.4584C238.108 23.1584 239.808 27.0584 240.308 38.2584L240.808 48.1584H224.508H208.208L208.708 38.2584C209.108 30.8584 209.708 27.5584 211.108 25.0584C214.108 20.0584 218.908 17.1584 224.508 17.1584C227.708 17.1584 230.308 17.8584 232.508 19.4584ZM352.508 19.4584C358.108 23.1584 359.808 27.0584 360.308 38.2584L360.808 48.1584H344.508H328.208L328.708 38.2584C329.108 30.8584 329.708 27.5584 331.108 25.0584C334.108 20.0584 338.908 17.1584 344.508 17.1584C347.708 17.1584 350.308 17.8584 352.508 19.4584ZM72.5078 75.6584C72.5078 84.7584 72.9078 88.1584 74.6078 92.6584C82.3078 113.358 111.508 119.058 127.508 103.158C132.708 97.8584 136.508 89.6584 136.508 83.6584V80.1584H128.008C119.908 80.1584 119.508 80.2584 119.508 82.3584C119.508 85.6584 116.008 90.8584 112.308 93.1584C107.708 95.9584 100.808 95.7584 96.5078 92.8584C90.9078 89.1584 89.2078 85.2584 88.7078 74.0584L88.2078 64.1584H140.408H192.508V75.6584C192.508 84.7584 192.908 88.1584 194.608 92.6584C202.308 113.358 231.508 119.058 247.508 103.158C252.708 97.8584 256.508 89.6584 256.508 83.6584V80.1584H248.008C239.908 80.1584 239.508 80.2584 239.508 82.3584C239.508 85.6584 236.008 90.8584 232.308 93.1584C227.708 95.9584 220.808 95.7584 216.508 92.8584C210.908 89.1584 209.208 85.2584 208.708 74.0584L208.208 64.1584H260.408H312.508V75.6584C312.508 90.0584 314.408 96.0584 321.508 103.158C337.508 119.058 366.708 113.358 374.408 92.6584C375.608 89.5584 376.508 85.5584 376.508 83.6584V80.1584H368.008C359.908 80.1584 359.508 80.2584 359.508 82.3584C359.508 85.6584 356.008 90.8584 352.308 93.1584C347.708 95.9584 340.808 95.7584 336.508 92.8584C330.908 89.1584 329.208 85.2584 328.708 73.9584L328.208 64.0584L370.608 64.3584C411.408 64.6584 413.208 64.7584 417.508 66.7584C423.008 69.3584 427.808 74.2584 430.208 79.6584C431.608 82.9584 432.008 87.4584 432.308 105.858L432.708 128.158H224.508H16.3078L16.7078 105.858C17.1078 81.3584 17.7078 78.6584 23.8078 72.3584C30.3078 65.5584 34.8078 64.4584 56.8078 64.2584L72.5078 64.1584V75.6584Z" fill="black"/>
<path d="M357.301 2.25724C364.401 5.05694 371.701 12.3562 374.401 19.6554C376.101 24.1549 376.501 27.5546 376.501 36.6536V48.0524L398.201 48.3524C420 48.6524 420 48.6524 426 51.5521C433.7 55.3517 441.3 62.9509 445.1 70.6501L448 76.6494V224.134V371.618L445.1 377.618C441.3 385.317 433.7 392.916 426 396.716L420 399.615L304.301 399.915C189.403 400.115 188.503 400.115 186.503 398.116C184.103 395.716 183.803 389.417 185.903 386.517C187.303 384.617 189.903 384.617 300.202 384.117C406.1 383.617 413.2 383.517 417 381.817C422.4 379.418 427.3 374.518 429.9 369.119C432 364.619 432 364.419 432.3 254.331L432.6 144.142H224.502H16.5044V194.137C16.5044 242.832 16.4044 244.232 14.5044 246.132C11.8044 248.831 5.20451 248.831 2.50454 246.132C0.504561 244.132 0.504561 243.232 0.704559 160.341L1.00456 76.6494L3.90453 70.6501C7.70449 62.9509 15.3044 55.3517 23.0043 51.5521L29.0043 48.6524L50.804 48.3524L72.5038 48.0524V36.6536C72.5038 22.2551 74.5038 16.2558 81.5037 9.15651C97.5036 -6.74182 126.703 -1.04242 134.403 19.6554C136.103 24.1549 136.503 27.5546 136.503 36.6536V48.1524H164.503H192.503V36.6536C192.503 22.2551 194.403 16.2558 201.503 9.15651C217.502 -6.74182 246.702 -1.04242 254.402 19.6554C256.102 24.1549 256.502 27.5546 256.502 36.6536V48.1524H284.502H312.501V36.6536C312.501 22.2551 314.401 16.2558 321.501 9.15651C330.401 0.357436 345.001 -2.44227 357.301 2.25724ZM336.501 19.4554C330.901 23.155 329.201 27.0546 328.701 38.2535L328.201 48.1524H344.501H360.801L360.301 38.2535C359.901 30.8542 359.301 27.5546 357.901 25.0548C354.901 20.0554 350.101 17.1557 344.501 17.1557C341.301 17.1557 338.701 17.8556 336.501 19.4554ZM216.502 19.4554C210.902 23.155 209.202 27.0546 208.702 38.2535L208.202 48.1524H224.502H240.802L240.302 38.2535C239.902 30.8542 239.302 27.5546 237.902 25.0548C234.902 20.0554 230.102 17.1557 224.502 17.1557C221.302 17.1557 218.702 17.8556 216.502 19.4554ZM96.5036 19.4554C90.9036 23.155 89.2037 27.0546 88.7037 38.2535L88.2037 48.1524H104.504H120.803L120.303 38.2535C119.903 30.8542 119.303 27.5546 117.903 25.0548C114.903 20.0554 110.103 17.1557 104.504 17.1557C101.304 17.1557 98.7036 17.8556 96.5036 19.4554ZM376.501 75.6495C376.501 84.7486 376.101 88.1482 374.401 92.6477C366.701 113.346 337.501 119.045 321.501 103.147C316.301 97.8472 312.501 89.6481 312.501 83.6487V80.1491H321.001C329.101 80.1491 329.501 80.249 329.501 82.3488C329.501 85.6485 333.001 90.8479 336.701 93.1477C341.301 95.9474 348.201 95.7474 352.501 92.8477C358.101 89.1481 359.801 85.2485 360.301 74.0497L360.801 64.1507H308.601H256.502V75.6495C256.502 84.7486 256.102 88.1482 254.402 92.6477C246.702 113.346 217.502 119.045 201.503 103.147C196.303 97.8472 192.503 89.6481 192.503 83.6487V80.1491H201.003C209.102 80.1491 209.502 80.249 209.502 82.3488C209.502 85.6485 213.002 90.8479 216.702 93.1477C221.302 95.9474 228.202 95.7474 232.502 92.8477C238.102 89.1481 239.802 85.2485 240.302 74.0497L240.802 64.1507H188.603H136.503V75.6495C136.503 90.048 134.603 96.0474 127.503 103.147C111.503 119.045 82.3037 113.346 74.6038 92.6477C73.4038 89.5481 72.5038 85.5485 72.5038 83.6487V80.1491H81.0037C89.1037 80.1491 89.5037 80.249 89.5037 82.3488C89.5037 85.6485 93.0036 90.8479 96.7036 93.1477C101.304 95.9474 108.203 95.7474 112.503 92.8477C118.103 89.1481 119.803 85.2485 120.303 73.9497L120.803 64.0507L78.4038 64.3507C37.6042 64.6507 35.8042 64.7507 31.5042 66.7505C26.0043 69.3502 21.2044 74.2497 18.8044 79.6491C17.4044 82.9488 17.0044 87.4483 16.7044 105.846L16.3044 128.144H224.502H432.7L432.3 105.846C431.9 81.3489 431.3 78.6492 425.2 72.3499C418.7 65.5506 414.2 64.4507 392.201 64.2507L376.501 64.1507V75.6495Z" fill="black"/>
<path d="M64.5078 200.158V216.158H80.5078H96.5078V200.158V184.158H80.5078H64.5078V200.158Z" fill="black"/>
<path d="M136.508 200.158V216.158H152.508H168.508V200.158V184.158H152.508H136.508V200.158Z" fill="black"/>
<path d="M208.508 200.158V216.158H224.508H240.508V200.158V184.158H224.508H208.508V200.158Z" fill="black"/>
<path d="M280.508 200.158V216.158H296.508H312.508V200.158V184.158H296.508H280.508V200.158Z" fill="black"/>
<path d="M352.508 200.158V216.158H368.508H384.508V200.158V184.158H368.508H352.508V200.158Z" fill="black"/>
<path d="M352.508 264V280H368.508H384.508V264V248H368.508H352.508V264Z" fill="black"/>
<path d="M352.508 328V344H368.508H384.508V328V312H368.508H352.508V328Z" fill="black"/>
<path d="M64.5078 264.158V280.158H80.5078H96.5078V264.158V248.158H80.5078H64.5078V264.158Z" fill="black"/>
<path d="M136.508 264.158V280.158H152.508H168.508V264.158V248.158H152.508H136.508V264.158Z" fill="black"/>
<path d="M208.508 264.158V280.158H224.508H240.508V264.158V248.158H224.508H208.508V264.158Z" fill="black"/>
<path d="M280.508 264V280H296.508H312.508V264V248H296.508H280.508V264Z" fill="black"/>
<path d="M280.508 328V344H296.508H312.508V328V312H296.508H280.508V328Z" fill="black"/>
<path d="M64.5078 328.158V344.158H80.5078H96.5078V328.158V312.158H80.5078H64.5078V328.158Z" fill="black"/>
<path d="M136.508 328.158V344.158H152.508H168.508V328.158V312.158H152.508H136.508V328.158Z" fill="black"/>
<path d="M208.508 328V344H224.508H240.508V328V312H224.508H208.508V328Z" fill="black"/>
<path d="M434.907 313.557C433.107 314.857 433.007 316.757 432.507 339.857C431.807 367.157 431.407 369.457 425.207 376.057C418.707 382.957 415.907 383.557 388.207 384.157C365.107 384.657 363.207 384.757 361.907 386.557C359.807 389.557 360.107 395.757 362.607 398.257C364.607 400.257 365.507 400.257 392.307 399.957L420.007 399.657L426.007 396.757C433.707 392.957 441.307 385.357 445.107 377.657L448.007 371.657L448.307 343.957C448.607 317.157 448.607 316.257 446.607 314.257C444.107 311.757 437.907 311.457 434.907 313.557Z" fill="black"/>
</svg>
