<svg width="300" height="322" viewBox="0 0 300 322" fill="none" xmlns="http://www.w3.org/2000/svg">
<path d="M132.5 1.56524C102.3 7.96524 77.8998 32.6652 71.5998 63.0652C61.1998 113.465 98.7998 159.865 150 159.865C171.4 159.865 189.7 152.665 205.2 138.065C221.4 122.765 230 102.565 230 79.8652C230 41.4652 203.7 9.06524 166.4 1.36524C157.3 -0.534756 141.7 -0.434756 132.5 1.56524ZM162.9 24.3652C188 30.2652 207 54.2652 207 79.8652C207 110.665 180.8 136.865 150 136.865C119.2 136.865 92.9998 110.665 92.9998 79.8652C92.9998 65.0652 99.0998 50.6652 110 39.8652C124.1 25.6652 143.9 19.9652 162.9 24.3652Z" fill="black"/>
<path d="M89.3 181.865C44.1 188.065 9.2 221.365 1.5 265.765C0.5 271.265 0 281.065 0 294.565V315.065L3.4 318.465C6.3 321.365 7.5 321.865 11.4 321.865C15 321.865 16.6 321.265 19.2 318.965L22.5 316.065L23.1 293.165C23.8 269.765 24.3 266.165 29 253.665C33.2 242.365 44.6 227.865 56 219.265C61.2 215.365 76.5 208.365 84.5 206.265C90.9 204.465 96.2 204.365 150 204.365C208 204.365 208.6 204.365 216.9 206.665C245.9 214.565 266.3 235.165 274.7 264.865C275.8 268.665 276.4 277.265 276.9 293.165L277.5 316.065L280.8 318.965C283.4 321.265 285 321.865 288.6 321.865C292.5 321.865 293.7 321.365 296.6 318.465L300 315.065V294.565C300 265.565 297.4 252.665 287.8 234.765C274 208.765 249.8 190.565 219 183.165C213.5 181.865 203.3 181.565 154 181.265C121.8 181.165 92.7 181.465 89.3 181.865Z" fill="black"/>
</svg>
