<svg width="481" height="361" viewBox="0 0 481 361" fill="none" xmlns="http://www.w3.org/2000/svg">
<path d="M37.8 2.40461C21 7.90461 7.6 21.5046 2.2 38.5046L0 45.5046V180.505V315.505L2.2 322.505C7.3 338.705 19.5 351.505 36 358.105L42 360.505L237.8 360.805C454.3 361.105 439 361.505 452 354.705C460.7 350.205 470.5 339.905 474.8 330.805C476.7 326.805 478.8 321.105 479.4 318.205C480.2 314.505 480.5 272.705 480.5 180.205C480.5 34.0046 480.8 41.0046 474.3 28.6046C470.2 20.8046 459.7 10.3046 451.9 6.30461C439.2 -0.395391 454.1 0.00460888 239.5 0.00460888L45 0.104609L37.8 2.40461ZM435.9 18.5046C442.8 20.6046 448.4 24.1046 453.1 29.2046C457.3 33.8046 461.8 42.3046 462.8 47.6046C463.4 50.7046 462.3 51.7046 363.5 135.605C290.7 197.405 261.7 221.505 256.9 224.005C250.5 227.305 249.7 227.505 240.1 227.505C230.4 227.505 229.7 227.405 223.7 224.005C219.7 221.805 180.2 189.005 117.4 136.005L17.5 51.5046L18 47.6046C19.4 38.1046 27.8 26.5046 36.6 21.9046C46.4 16.9046 36.6 17.1046 240 17.1046C406.5 17.0046 431.6 17.2046 435.9 18.5046ZM110.3 152.805C160.5 195.305 203.7 231.705 206.2 233.605C217 241.805 227.7 245.405 241.5 245.205C251.1 245.105 260.1 242.705 268 238.105C270.8 236.505 315.8 199.005 368 154.605L463 74.1046L463.3 191.805C463.4 271.505 463.2 311.205 462.5 314.605C460.3 325.305 464.5 328.805 404 267.105C373.8 236.305 347.8 210.605 346.3 209.905C339.1 206.905 332.2 214.105 335.6 221.005C336.4 222.605 361.9 249.205 392.2 280.105C432.8 321.405 447.2 336.705 446.5 337.605C445.9 338.205 443.1 339.805 440.2 341.105L435 343.505L242.5 343.805C50 344.105 50 344.105 43.5 342.005C39.9 340.805 36 339.105 34.8 338.205C32.7 336.505 33.2 336.005 87.6 280.505C117.9 249.705 143.3 223.105 144.2 221.405C147.6 214.605 141.7 207.505 134.2 209.405C133 209.705 107 235.405 76.5 266.605L21.1 323.305L19.7 319.905C18.9 318.005 17.9 313.605 17.4 310.005C16.9 306.405 16.6 251.805 16.5 188.705C16.5 98.2046 16.8 74.0046 17.7 74.6046C18.4 75.1046 60.1 110.205 110.3 152.805Z" fill="black"/>
</svg>
