<svg width="464" height="386" viewBox="0 0 464 386" fill="none" xmlns="http://www.w3.org/2000/svg">
<path d="M393.743 18.2008C383.943 28.3008 358.943 53.7008 338.243 74.7008C302.443 111.001 300.543 113.101 300.543 116.601C300.543 121.201 304.543 125.001 309.243 125.001C312.043 125.001 316.243 121.201 348.143 89.3008L383.943 53.5008L397.743 67.3008L411.443 81.0008L341.643 150.701L271.943 220.501L258.243 206.801L244.443 193.001L259.643 177.801C267.943 169.401 275.243 161.501 275.843 160.301C277.643 156.701 277.143 154.001 273.943 150.801C271.243 148.201 270.343 147.801 267.143 148.301C264.043 148.901 260.643 151.801 244.343 168.101L225.143 187.301L212.943 220.001L200.843 252.601L185.943 267.501C177.743 275.701 170.843 282.201 170.543 282.001C170.343 281.701 164.043 269.301 156.643 254.501C149.243 239.601 142.443 226.901 141.743 226.201C140.943 225.601 138.843 224.701 137.243 224.401C134.743 223.901 133.643 224.401 131.143 226.701C128.543 229.101 126.043 235.801 111.743 278.801C102.843 305.801 95.2431 328.001 94.9431 328.001C94.2431 328.001 82.8431 303.001 76.8431 288.201L71.6431 275.301L80.1431 255.401C100.043 209.001 113.243 168.101 118.643 135.501C121.043 120.801 121.043 94.4008 118.643 84.7008C113.843 65.4008 101.443 52.5008 84.1431 48.9008C76.6431 47.4008 61.7431 48.2008 55.9431 50.5008C39.6431 57.0008 29.1431 71.4008 24.2431 94.0008C21.4431 107.101 21.6431 147.301 24.7431 166.801C29.3431 196.401 38.2431 232.001 48.7431 263.001L52.6431 274.501L37.3431 305.001C28.9431 321.801 17.0431 344.201 10.9431 354.801C-0.756892 375.401 -1.75689 378.601 1.84311 383.101C4.04311 385.801 10.5431 386.401 13.3431 384.101C15.9431 381.901 31.9431 353.101 47.4431 322.801L61.5431 295.101L68.8431 313.301C72.8431 323.301 79.2431 337.801 82.9431 345.601C88.6431 357.401 90.2431 359.901 92.7431 360.901C96.0431 362.301 99.4431 361.701 102.143 359.301C103.143 358.401 111.143 335.801 120.543 307.601C129.743 280.101 137.443 257.101 137.743 256.601C138.043 256.101 143.443 266.001 149.743 278.601C156.043 291.201 161.843 302.301 162.743 303.201C163.743 304.401 165.743 305.001 168.343 305.001C172.343 305.001 172.943 304.501 192.943 284.501L213.443 264.101L245.443 252.101L277.343 240.101L351.143 166.301C421.243 96.2008 425.043 92.6008 426.643 94.3008C428.343 95.9008 426.843 97.5008 398.143 126.301C369.243 155.201 367.943 156.701 367.943 160.301C367.943 165.501 371.443 169.001 376.643 169.001C380.243 169.001 381.743 167.701 414.643 134.701C447.843 101.601 448.943 100.301 448.943 96.6008C448.943 93.2008 448.143 92.0008 442.443 86.1008L436.043 79.5008L449.943 65.4008C462.443 52.9008 463.943 51.0008 463.943 47.9008C463.943 44.9008 461.943 42.6008 441.643 22.3008C420.143 0.800824 419.243 0.000824333 415.443 0.000824333C411.643 0.000824333 410.843 0.700824 393.743 18.2008ZM429.943 34.5008L443.443 48.0008L433.443 58.0008L423.443 68.0008L409.743 54.3008L395.943 40.5008L405.643 30.8008C411.043 25.4008 415.643 21.0008 415.943 21.0008C416.243 21.0008 422.543 27.1008 429.943 34.5008ZM87.8431 68.6008C94.5431 72.2008 98.3431 77.3008 101.243 86.4008C103.143 92.4008 103.443 95.7008 103.443 108.001C103.243 140.701 93.3431 177.601 69.6431 234.001C65.9431 242.701 62.8431 248.801 62.5431 248.001C60.0431 241.201 54.0431 220.501 50.4431 206.301C42.6431 176.101 38.9431 150.201 38.9431 126.001C38.9431 103.501 41.6431 89.9008 48.1431 79.1008C54.5431 68.6008 61.8431 64.8008 74.4431 65.3008C81.0431 65.6008 83.4431 66.1008 87.8431 68.6008ZM255.943 229.001C255.943 229.401 248.743 232.401 239.943 235.701C231.143 239.001 223.943 241.401 223.943 241.001C223.943 240.201 234.843 211.001 235.643 209.701C236.143 208.901 255.943 227.701 255.943 229.001Z" fill="black"/>
<path d="M282.543 130.102C280.443 131.702 279.943 133.002 279.943 136.502C279.943 140.002 280.443 141.302 282.543 142.902C288.343 147.502 296.143 143.802 296.143 136.502C296.143 129.202 288.343 125.502 282.543 130.102Z" fill="black"/>
</svg>
