<svg width="449" height="401" viewBox="0 0 449 401" fill="none" xmlns="http://www.w3.org/2000/svg">
<path d="M91.7 2.25842C84.6 5.05842 77.3 12.3584 74.6 19.6584C72.9 24.1584 72.5 27.5584 72.5 36.6584V48.0584L50.8 48.3584C29 48.6584 29 48.6584 23 51.5584C15.3 55.3584 7.7 62.9584 3.9 70.6584L1 76.6584V224.158V371.658L3.9 377.658C7.7 385.358 15.3 392.958 23 396.758L29 399.658L144.7 399.958C259.6 400.158 260.5 400.158 262.5 398.158C264.9 395.758 265.2 389.458 263.1 386.558C261.7 384.658 259.1 384.658 148.8 384.158C42.9 383.658 35.8 383.558 32 381.858C26.6 379.458 21.7 374.558 19.1 369.158C17 364.658 17 364.458 16.7 254.358L16.4 144.158H224.5H432.5V194.158C432.5 242.858 432.6 244.258 434.5 246.158C437.2 248.858 443.8 248.858 446.5 246.158C448.5 244.158 448.5 243.258 448.3 160.358L448 76.6584L445.1 70.6584C441.3 62.9584 433.7 55.3584 426 51.5584L420 48.6584L398.2 48.3584L376.5 48.0584V36.6584C376.5 22.2584 374.5 16.2584 367.5 9.15842C351.5 -6.74158 322.3 -1.04158 314.6 19.6584C312.9 24.1584 312.5 27.5584 312.5 36.6584V48.1584H284.5H256.5V36.6584C256.5 22.2584 254.6 16.2584 247.5 9.15842C231.5 -6.74158 202.3 -1.04158 194.6 19.6584C192.9 24.1584 192.5 27.5584 192.5 36.6584V48.1584H164.5H136.5V36.6584C136.5 22.2584 134.6 16.2584 127.5 9.15842C118.6 0.358417 104 -2.44158 91.7 2.25842ZM112.5 19.4584C118.1 23.1584 119.8 27.0584 120.3 38.2584L120.8 48.1584H104.5H88.2L88.7 38.2584C89.1 30.8584 89.7 27.5584 91.1 25.0584C94.1 20.0584 98.9 17.1584 104.5 17.1584C107.7 17.1584 110.3 17.8584 112.5 19.4584ZM232.5 19.4584C238.1 23.1584 239.8 27.0584 240.3 38.2584L240.8 48.1584H224.5H208.2L208.7 38.2584C209.1 30.8584 209.7 27.5584 211.1 25.0584C214.1 20.0584 218.9 17.1584 224.5 17.1584C227.7 17.1584 230.3 17.8584 232.5 19.4584ZM352.5 19.4584C358.1 23.1584 359.8 27.0584 360.3 38.2584L360.8 48.1584H344.5H328.2L328.7 38.2584C329.1 30.8584 329.7 27.5584 331.1 25.0584C334.1 20.0584 338.9 17.1584 344.5 17.1584C347.7 17.1584 350.3 17.8584 352.5 19.4584ZM72.5 75.6584C72.5 84.7584 72.9 88.1584 74.6 92.6584C82.3 113.358 111.5 119.058 127.5 103.158C132.7 97.8584 136.5 89.6584 136.5 83.6584V80.1584H128C119.9 80.1584 119.5 80.2584 119.5 82.3584C119.5 85.6584 116 90.8584 112.3 93.1584C107.7 95.9584 100.8 95.7584 96.5 92.8584C90.9 89.1584 89.2 85.2584 88.7 74.0584L88.2 64.1584H140.4H192.5V75.6584C192.5 84.7584 192.9 88.1584 194.6 92.6584C202.3 113.358 231.5 119.058 247.5 103.158C252.7 97.8584 256.5 89.6584 256.5 83.6584V80.1584H248C239.9 80.1584 239.5 80.2584 239.5 82.3584C239.5 85.6584 236 90.8584 232.3 93.1584C227.7 95.9584 220.8 95.7584 216.5 92.8584C210.9 89.1584 209.2 85.2584 208.7 74.0584L208.2 64.1584H260.4H312.5V75.6584C312.5 90.0584 314.4 96.0584 321.5 103.158C337.5 119.058 366.7 113.358 374.4 92.6584C375.6 89.5584 376.5 85.5584 376.5 83.6584V80.1584H368C359.9 80.1584 359.5 80.2584 359.5 82.3584C359.5 85.6584 356 90.8584 352.3 93.1584C347.7 95.9584 340.8 95.7584 336.5 92.8584C330.9 89.1584 329.2 85.2584 328.7 73.9584L328.2 64.0584L370.6 64.3584C411.4 64.6584 413.2 64.7584 417.5 66.7584C423 69.3584 427.8 74.2584 430.2 79.6584C431.6 82.9584 432 87.4584 432.3 105.858L432.7 128.158H224.5H16.3L16.7 105.858C17.1 81.3584 17.7 78.6584 23.8 72.3584C30.3 65.5584 34.8 64.4584 56.8 64.2584L72.5 64.1584V75.6584Z" fill="black"/>
<path d="M357.301 2.25724C364.401 5.05694 371.701 12.3562 374.401 19.6554C376.101 24.1549 376.501 27.5546 376.501 36.6536V48.0524L398.201 48.3524C420 48.6524 420 48.6524 426 51.5521C433.7 55.3517 441.3 62.9509 445.1 70.6501L448 76.6494V224.134V371.618L445.1 377.618C441.3 385.317 433.7 392.916 426 396.716L420 399.615L304.301 399.915C189.403 400.115 188.503 400.115 186.503 398.116C184.103 395.716 183.803 389.417 185.903 386.517C187.303 384.617 189.903 384.617 300.202 384.117C406.1 383.617 413.2 383.517 417 381.817C422.4 379.418 427.3 374.518 429.9 369.119C432 364.619 432 364.419 432.3 254.331L432.6 144.142H224.502H16.5044V194.137C16.5044 242.832 16.4044 244.232 14.5044 246.132C11.8044 248.831 5.20451 248.831 2.50454 246.132C0.504561 244.132 0.504561 243.232 0.704559 160.341L1.00456 76.6494L3.90453 70.6501C7.70449 62.9509 15.3044 55.3517 23.0043 51.5521L29.0043 48.6524L50.804 48.3524L72.5038 48.0524V36.6536C72.5038 22.2551 74.5038 16.2558 81.5037 9.15651C97.5036 -6.74182 126.703 -1.04242 134.403 19.6554C136.103 24.1549 136.503 27.5546 136.503 36.6536V48.1524H164.503H192.503V36.6536C192.503 22.2551 194.403 16.2558 201.503 9.15651C217.502 -6.74182 246.702 -1.04242 254.402 19.6554C256.102 24.1549 256.502 27.5546 256.502 36.6536V48.1524H284.502H312.501V36.6536C312.501 22.2551 314.401 16.2558 321.501 9.15651C330.401 0.357436 345.001 -2.44227 357.301 2.25724ZM336.501 19.4554C330.901 23.155 329.201 27.0546 328.701 38.2535L328.201 48.1524H344.501H360.801L360.301 38.2535C359.901 30.8542 359.301 27.5546 357.901 25.0548C354.901 20.0554 350.101 17.1557 344.501 17.1557C341.301 17.1557 338.701 17.8556 336.501 19.4554ZM216.502 19.4554C210.902 23.155 209.202 27.0546 208.702 38.2535L208.202 48.1524H224.502H240.802L240.302 38.2535C239.902 30.8542 239.302 27.5546 237.902 25.0548C234.902 20.0554 230.102 17.1557 224.502 17.1557C221.302 17.1557 218.702 17.8556 216.502 19.4554ZM96.5036 19.4554C90.9036 23.155 89.2037 27.0546 88.7037 38.2535L88.2037 48.1524H104.504H120.803L120.303 38.2535C119.903 30.8542 119.303 27.5546 117.903 25.0548C114.903 20.0554 110.103 17.1557 104.504 17.1557C101.304 17.1557 98.7036 17.8556 96.5036 19.4554ZM376.501 75.6495C376.501 84.7486 376.101 88.1482 374.401 92.6477C366.701 113.346 337.501 119.045 321.501 103.147C316.301 97.8472 312.501 89.6481 312.501 83.6487V80.1491H321.001C329.101 80.1491 329.501 80.249 329.501 82.3488C329.501 85.6485 333.001 90.8479 336.701 93.1477C341.301 95.9474 348.201 95.7474 352.501 92.8477C358.101 89.1481 359.801 85.2485 360.301 74.0497L360.801 64.1507H308.601H256.502V75.6495C256.502 84.7486 256.102 88.1482 254.402 92.6477C246.702 113.346 217.502 119.045 201.503 103.147C196.303 97.8472 192.503 89.6481 192.503 83.6487V80.1491H201.003C209.102 80.1491 209.502 80.249 209.502 82.3488C209.502 85.6485 213.002 90.8479 216.702 93.1477C221.302 95.9474 228.202 95.7474 232.502 92.8477C238.102 89.1481 239.802 85.2485 240.302 74.0497L240.802 64.1507H188.603H136.503V75.6495C136.503 90.048 134.603 96.0474 127.503 103.147C111.503 119.045 82.3037 113.346 74.6038 92.6477C73.4038 89.5481 72.5038 85.5485 72.5038 83.6487V80.1491H81.0037C89.1037 80.1491 89.5037 80.249 89.5037 82.3488C89.5037 85.6485 93.0036 90.8479 96.7036 93.1477C101.304 95.9474 108.203 95.7474 112.503 92.8477C118.103 89.1481 119.803 85.2485 120.303 73.9497L120.803 64.0507L78.4038 64.3507C37.6042 64.6507 35.8042 64.7507 31.5042 66.7505C26.0043 69.3502 21.2044 74.2497 18.8044 79.6491C17.4044 82.9488 17.0044 87.4483 16.7044 105.846L16.3044 128.144H224.502H432.7L432.3 105.846C431.9 81.3489 431.3 78.6492 425.2 72.3499C418.7 65.5506 414.2 64.4507 392.201 64.2507L376.501 64.1507V75.6495Z" fill="black"/>
<path d="M64.5 200.158V216.158H80.5H96.5V200.158V184.158H80.5H64.5V200.158Z" fill="black"/>
<path d="M136.5 200.158V216.158H152.5H168.5V200.158V184.158H152.5H136.5V200.158Z" fill="black"/>
<path d="M208.5 200.158V216.158H224.5H240.5V200.158V184.158H224.5H208.5V200.158Z" fill="black"/>
<path d="M280.5 200.158V216.158H296.5H312.5V200.158V184.158H296.5H280.5V200.158Z" fill="black"/>
<path d="M352.5 200.158V216.158H368.5H384.5V200.158V184.158H368.5H352.5V200.158Z" fill="black"/>
<path d="M343.637 280.035C320.6 303.245 301.442 322.787 300.967 323.585C299.937 325.499 294 360.993 294 365.46C294 370.006 295.979 372 300.571 372C304.925 372 340.154 366.018 342.054 364.981C342.846 364.502 362.242 345.2 385.279 321.989L427 279.875V276.286V272.776L409.742 255.388L392.483 238H389H385.437L343.637 280.035ZM400.083 265.518L410.771 276.286L406.179 280.832L401.667 285.458L390.821 274.531L379.896 263.524L384.25 259.137C386.625 256.744 388.762 254.75 389 254.75C389.237 254.75 394.225 259.615 400.083 265.518ZM381.083 284.661L391.771 295.429L365.012 322.388L338.333 349.268L327.487 338.261L316.562 327.333L343.083 300.613C357.65 285.937 369.762 273.893 370 273.893C370.237 273.893 375.225 278.758 381.083 284.661ZM317.75 348.47C320.996 351.74 323.45 354.532 323.212 354.692C323.054 354.851 319.65 355.489 315.771 356.127L308.567 357.324L309.754 349.906C310.387 345.838 311.1 342.488 311.417 342.488C311.654 342.488 314.504 345.2 317.75 348.47Z" fill="black"/>
<path d="M64.5 264.158V280.158H80.5H96.5V264.158V248.158H80.5H64.5V264.158Z" fill="black"/>
<path d="M136.5 264.158V280.158H152.5H168.5V264.158V248.158H152.5H136.5V264.158Z" fill="black"/>
<path d="M208.5 264.158V280.158H224.5H240.5V264.158V248.158H224.5H208.5V264.158Z" fill="black"/>
<path d="M280.5 264.158V280.158H296.5H312.5V264.158V248.158H296.5H280.5V264.158Z" fill="black"/>
<path d="M64.5 328.158V344.158H80.5H96.5V328.158V312.158H80.5H64.5V328.158Z" fill="black"/>
<path d="M136.5 328.158V344.158H152.5H168.5V328.158V312.158H152.5H136.5V328.158Z" fill="black"/>
<path d="M208.5 328.158V344.158H224.5H240.5V328.158V312.158H224.5H208.5V328.158Z" fill="black"/>
<path d="M434.899 313.557C433.099 314.857 432.999 316.757 432.499 339.857C431.799 367.157 431.399 369.457 425.199 376.057C418.699 382.957 415.899 383.557 388.199 384.157C365.099 384.657 363.199 384.757 361.899 386.557C359.799 389.557 360.099 395.757 362.599 398.257C364.599 400.257 365.499 400.257 392.299 399.957L419.999 399.657L425.999 396.757C433.699 392.957 441.299 385.357 445.099 377.657L447.999 371.657L448.299 343.957C448.599 317.157 448.599 316.257 446.599 314.257C444.099 311.757 437.899 311.457 434.899 313.557Z" fill="black"/>
</svg>
