<svg width="367" height="379" viewBox="0 0 367 379" fill="none" xmlns="http://www.w3.org/2000/svg">
<path d="M264.801 0.576071C249.201 3.07607 234.301 10.4761 222.401 21.7761C211.701 31.9761 147.301 100.776 143.201 106.276C133.701 119.476 128.801 135.176 128.801 153.076C128.801 171.176 133.401 186.076 143.401 200.076C149.001 207.776 176.801 234.276 180.401 235.176C186.601 236.676 192.201 230.776 190.401 224.576C189.801 222.676 184.701 217.076 176.301 209.276C160.601 194.676 156.001 189.076 151.601 179.376C143.401 161.676 143.701 141.976 152.501 124.576C156.901 115.876 157.001 115.776 199.601 70.4761C242.901 24.5761 246.201 21.8761 266.601 17.8761C273.901 16.4761 276.701 16.3761 283.901 17.2761C301.701 19.5761 310.901 24.5761 327.101 40.5761C344.101 57.4761 349.401 68.9761 349.301 89.0761C349.201 100.576 347.001 109.276 341.301 119.376C337.701 125.876 335.601 128.376 310.001 155.576C284.501 182.676 285.001 182.076 285.001 185.776C285.001 187.676 285.701 190.076 286.501 191.276C288.201 193.676 292.901 195.076 296.001 194.076C298.401 193.276 347.701 141.376 352.001 134.976C361.901 120.676 366.201 106.576 366.201 88.5761C366.201 61.8761 357.401 43.7761 334.401 23.1761C317.001 7.57607 301.401 0.876071 280.501 0.0760707C275.001 -0.123929 267.901 0.0760707 264.801 0.576071Z" fill="black"/>
<path d="M180 143.876C176.8 145.476 174.6 149.976 175.5 153.276C175.8 154.776 180.8 160.376 187.3 166.476C208.9 186.876 212.7 191.776 217.6 206.076C219.9 212.876 220.3 215.776 220.4 225.076C220.4 237.676 218.9 244.176 213.3 254.776C209.4 262.276 207.7 264.276 173.6 300.576C136.6 339.976 128.2 348.276 121 352.576C98.6 365.776 70.8 364.076 50.2 348.276C47 345.776 40.5 339.676 35.7 334.676C21.6 319.776 16.4 306.276 17.3 286.576C17.8 274.876 20.2 266.776 26.1 256.976C28 253.876 41.1 239.076 55.3 223.976C79 198.776 81 196.276 81 192.976C81 191.076 80.6 188.576 80 187.576C78.6 184.976 73.6 183.476 70.2 184.676C67.4 185.676 21.8 233.476 14.7 242.876C5.2 255.576 0 272.076 0 290.076C0 314.376 8 332.176 27.3 350.876C39.7 362.876 48.7 368.976 60 373.176C86 382.976 113.7 379.276 136.5 363.076C141.9 359.276 209.2 288.976 219.8 276.176C239 252.976 243.1 219.576 230.4 191.776C225.2 180.376 219.4 173.076 203.8 158.376C186.2 141.776 185.3 141.176 180 143.876Z" fill="black"/>
</svg>
