<svg width="512" height="288" viewBox="0 0 512 288" fill="none" xmlns="http://www.w3.org/2000/svg">
<path d="M71.04 2.60022C68.64 5.60022 68.44 7.80022 70.04 11.3002C71.74 15.0002 75.04 16.0002 85.94 16.0002H95.94V35.5002V55.0002H65.54C38.54 55.0002 34.44 55.2002 29.04 56.9002C17.24 60.6002 8.73999 67.8002 3.23999 78.8002L0.439993 84.5002L0.139993 142C-0.160007 198.9 -0.160007 199.6 2.03999 205.5C6.13999 216.9 12.74 224.1 23.94 229.4L30.44 232.5L63.24 232.8L95.94 233.1V252.6V272H85.94C73.64 272 70.34 273.3 69.34 278.6C68.84 281.3 69.14 282.8 70.64 284.8L72.64 287.5L103.74 287.8C133.84 288 134.94 288 136.94 286C139.74 283.2 139.64 277 136.84 274.4C135.04 272.8 132.84 272.4 123.34 272.2L111.94 271.8V252.4V233L296.74 232.8L481.44 232.5L488.24 229.3C496.64 225.3 504.54 217.6 508.54 209.5L511.44 203.5L511.74 145.9C512.04 89.9002 511.94 88.1002 509.94 82.8002C505.24 70.1002 495.54 60.8002 483.24 57.0002C476.84 55.0002 474.24 55.0002 294.34 55.0002H111.94V35.6002V16.2002L123.54 15.8002C134.34 15.5002 135.24 15.3002 137.04 13.1002C139.54 10.0002 139.54 4.60022 136.94 2.00022C135.04 0.100215 133.64 0.000215437 104.04 0.000215437H73.04L71.04 2.60022ZM95.94 144.5V218H65.74C38.54 218 35.04 217.8 31.44 216.1C25.44 213.4 21.14 209.4 18.14 203.6L15.44 198.5L15.14 146.7C14.84 88.8002 14.94 87.9002 21.44 80.3002C23.34 78.0002 27.24 75.0002 30.14 73.6002L35.34 71.0002H65.64H95.94V144.5ZM481.54 73.4002C484.34 74.7002 488.24 77.7002 490.24 80.1002C497.04 87.9002 497.04 88.5002 496.74 146.7C496.44 197.9 496.44 198.5 494.24 202.6C490.74 209.1 487.34 212.6 481.74 215.4L476.54 218H294.24H111.94V144.5V71.0002H294.24H476.44L481.54 73.4002Z" fill="black"/>
</svg>
