<svg width="512" height="376" viewBox="0 0 512 376" fill="none" xmlns="http://www.w3.org/2000/svg">
<path d="M497.5 2.39999C503.5 5.19999 507.2 8.99999 509.9 15C511.9 19.5 512 20.6 512 188V356.5L509.6 361.5C506.8 367.5 503 371.2 497 373.9C492.5 375.9 491.8 376 256 376H19.5L14.5 373.6C8.49999 370.8 4.79999 367 2.09999 361C0.0999924 356.5 -7.62939e-06 355.4 -7.62939e-06 188C-7.62939e-06 20.6 0.0999924 19.5 2.09999 15C4.79999 8.99999 8.49999 5.19999 14.5 2.39999L19.5 -5.60284e-06H256H492.5L497.5 2.39999ZM20.5 20.5L18 22.9V112.2V201.5L74.7 144.8C136.3 83.4 133.6 85.7 145 85.7C156.5 85.7 152.2 81.9 232.7 162.3L307 236.5L351.2 192.3C393.6 150 395.7 148.1 400.9 146.6C407.8 144.6 411.2 144.6 418.1 146.6C423.2 148.1 425.2 149.9 458.7 183.3L494 218.5V120.7V22.9L491.5 20.5L489.1 18H256H22.9L20.5 20.5ZM79.7 165.8L18 227.5V290.3V353.1L20.5 355.5L22.9 358L213.2 357.9H403.5L276.5 231.4C206.6 161.8 148.6 104.5 147.5 104C146.4 103.5 144.6 103.4 143.5 103.7C142.4 104 113.7 131.9 79.7 165.8ZM363.2 206.3L319.9 249.6L374.5 303.8L429.1 358H459.1H489.1L491.5 355.5L494 353.1V298.8V244.5L453.2 203.7C418 168.5 412 163 409.5 163C406.9 163 400.7 168.8 363.2 206.3Z" fill="black"/>
<path d="M314.998 62.2997C331.198 67.7997 344.398 81.7997 348.498 97.6997C350.498 105.2 350.398 118.2 348.398 125.1C345.998 133.3 341.398 141.2 335.698 147C314.998 167.8 282.898 168.1 262.398 147.6C242.098 127.3 241.898 95.4997 261.998 75.0997C268.098 68.8997 276.398 63.7997 284.398 61.4997C292.098 59.1997 307.098 59.5997 314.998 62.2997ZM284.498 80.9997C266.498 89.7997 259.898 112.4 270.498 128.9C278.198 141 293.098 147 306.498 143.5C326.098 138.4 336.798 118 329.798 99.2997C326.998 91.5997 318.598 83.1997 310.998 80.1997C303.298 77.1997 291.598 77.4997 284.498 80.9997Z" fill="black"/>
</svg>
