<?xml version="1.0" standalone="no"?>
<!DOCTYPE svg PUBLIC "-//W3C//DTD SVG 20010904//EN"
 "http://www.w3.org/TR/2001/REC-SVG-20010904/DTD/svg10.dtd">
<svg version="1.0" xmlns="http://www.w3.org/2000/svg"
 width="200.000000pt" height="50.000000pt" viewBox="0 0 200.000000 50.000000"
 preserveAspectRatio="xMidYMid meet">

<g transform="translate(0.000000,50.000000) scale(0.100000,-0.100000)"
fill="#000000" stroke="none">
<path d="M1650 255 l0 -205 45 0 45 0 0 60 0 60 70 0 c125 0 182 45 184 144 0
61 -19 97 -67 126 -27 17 -51 20 -154 20 l-123 0 0 -205z m240 115 c12 -12 20
-33 20 -54 0 -51 -36 -76 -111 -76 l-59 0 0 75 0 75 65 0 c52 0 69 -4 85 -20z"/>
<path d="M147 222 c-36 -37 -37 -39 -19 -55 17 -16 20 -15 55 21 20 21 37 46
37 55 0 29 -34 19 -73 -21z"/>
<path d="M0 152 l0 -102 102 0 101 0 -23 25 c-19 20 -33 25 -72 25 l-48 0 0
48 c0 41 -5 53 -30 77 l-30 29 0 -102z"/>
</g>
</svg>
